<svg id="Eye" xmlns="http://www.w3.org/2000/svg" width="18.444" height="10.13" viewBox="0 0 18.444 10.13">
  <g id="Path_1" data-name="Path 1" fill="#fff">
    <path d="M 9.2220458984375 9.63029670715332 C 6.737956047058105 9.63029670715332 4.479445934295654 8.316157341003418 3.022215843200684 7.213737010955811 C 1.90383517742157 6.367654800415039 1.07112729549408 5.511783123016357 0.6645463109016418 5.065141677856445 C 1.071027517318726 4.61860990524292 1.90373706817627 3.762713193893433 3.022215843200684 2.916556835174561 C 4.479445934295654 1.814136981964111 6.737956047058105 0.4999969303607941 9.2220458984375 0.4999969303607941 C 13.29798030853271 0.4999969303607941 16.79310035705566 3.984152555465698 17.77933311462402 5.065384864807129 C 17.37277412414551 5.51198148727417 16.54015922546387 6.367729187011719 15.42187595367432 7.213737010955811 C 13.9646463394165 8.316157341003418 11.70613574981689 9.63029670715332 9.2220458984375 9.63029670715332 Z" stroke="none"/>
    <path d="M 9.2220458984375 0.9999971389770508 C 5.703329086303711 0.9999971389770508 2.594616889953613 3.785300254821777 1.351099014282227 5.066346645355225 C 2.591824531555176 6.348519325256348 5.690994262695312 9.13029670715332 9.2220458984375 9.13029670715332 C 12.74076271057129 9.13029670715332 15.84947490692139 6.344993591308594 17.09299278259277 5.063947200775146 C 15.85226726531982 3.781774520874023 12.75309753417969 0.9999971389770508 9.2220458984375 0.9999971389770508 M 9.2220458984375 -2.86102294921875e-06 C 14.31524658203125 -2.86102294921875e-06 18.44409561157227 5.065146923065186 18.44409561157227 5.065146923065186 C 18.44409561157227 5.065146923065186 14.31524658203125 10.13029670715332 9.2220458984375 10.13029670715332 C 4.128846168518066 10.13029670715332 -3.814697265625e-06 5.065146923065186 -3.814697265625e-06 5.065146923065186 C -3.814697265625e-06 5.065146923065186 4.128846168518066 -2.86102294921875e-06 9.2220458984375 -2.86102294921875e-06 Z" stroke="none" fill="#707070"/>
  </g>
  <g id="Ellipse_4" data-name="Ellipse 4" transform="translate(7 2.394)" fill="#fff" stroke="#707070" stroke-width="1">
    <circle cx="2.5" cy="2.5" r="2.5" stroke="none"/>
    <circle cx="2.5" cy="2.5" r="2" fill="none"/>
  </g>
</svg>
