<?xml version="1.0" encoding="UTF-8" standalone="no"?> <svg width="64" height="64" viewBox="0 0 64 64" fill="none" xmlns="http://www.w3.org/2000/svg">
<path d="M61 37.3202C60.9952 35.5546 60.3532 33.85 59.1921 32.5199C58.031 31.1898 56.4288 30.3234 54.68 30.0802V27.4802C54.5554 21.5488 52.1118 15.9024 47.8729 11.7517C43.6341 7.60096 37.9377 5.27637 32.005 5.27637C26.0724 5.27637 20.3759 7.60096 16.1371 11.7517C11.8983 15.9024 9.45458 21.5488 9.33001 27.4802V30.0802C7.5755 30.3157 5.96608 31.1799 4.80057 32.5124C3.63507 33.8448 2.99268 35.5549 2.99268 37.3252C2.99268 39.0954 3.63507 40.8055 4.80057 42.1379C5.96608 43.4704 7.5755 44.3346 9.33001 44.5702V44.9102C9.33001 51.2902 16.93 56.3202 26.8 56.6302C26.8762 57.3313 27.2078 57.9798 27.7316 58.452C28.2555 58.9241 28.9348 59.1869 29.64 59.1902H31.4C32.1621 59.1902 32.8931 58.8881 33.433 58.3502C33.9728 57.8122 34.2774 57.0822 34.28 56.3202V55.1902C34.2774 54.4281 33.9728 53.6981 33.433 53.1601C32.8931 52.6222 32.1621 52.3202 31.4 52.3202H29.63C28.9655 52.3217 28.322 52.5539 27.8096 52.977C27.2971 53.4001 26.9474 53.9879 26.82 54.6402C18.75 54.3602 12.22 50.6402 11.41 45.9102H13.46C14.3308 45.9102 15.1662 45.5649 15.7829 44.9501C16.3996 44.3352 16.7474 43.501 16.75 42.6302V32.0002C16.7474 31.1293 16.3996 30.2951 15.7829 29.6802C15.1662 29.0654 14.3308 28.7202 13.46 28.7202H11.33V27.4802C11.4489 22.0755 13.6793 16.9323 17.5437 13.152C21.4081 9.37171 26.5991 7.25488 32.005 7.25488C37.4109 7.25488 42.602 9.37171 46.4663 13.152C50.3307 16.9323 52.5611 22.0755 52.68 27.4802V28.7402H50.54C49.6736 28.7401 48.8423 29.083 48.2277 29.6938C47.6132 30.3046 47.2653 31.1337 47.26 32.0002V42.6302C47.26 43.5001 47.6056 44.3344 48.2207 44.9495C48.8358 45.5646 49.6701 45.9102 50.54 45.9102H53.68C53.9452 45.9102 54.1996 45.8048 54.3871 45.6173C54.5747 45.4297 54.68 45.1754 54.68 44.9102V44.5702C56.4305 44.3266 58.034 43.4589 59.1954 42.1267C60.3567 40.7944 60.9976 39.0875 61 37.3202V37.3202ZM28.76 55.1902C28.76 54.9594 28.8517 54.7381 29.0148 54.575C29.178 54.4118 29.3993 54.3202 29.63 54.3202H31.39C31.5051 54.3188 31.6193 54.3404 31.726 54.3835C31.8327 54.4266 31.9298 54.4905 32.0117 54.5714C32.0935 54.6523 32.1585 54.7487 32.2028 54.8549C32.2472 54.9611 32.27 55.0751 32.27 55.1902V56.3202C32.27 56.4353 32.2472 56.5492 32.2028 56.6554C32.1585 56.7616 32.0935 56.858 32.0117 56.9389C31.9298 57.0198 31.8327 57.0837 31.726 57.1268C31.6193 57.17 31.5051 57.1915 31.39 57.1902H29.63C29.3993 57.1902 29.178 57.0985 29.0148 56.9353C28.8517 56.7722 28.76 56.5509 28.76 56.3202V55.1902ZM5.00001 37.3202C5.00121 36.0836 5.43313 34.8861 6.22151 33.9335C7.0099 32.9808 8.1055 32.3326 9.32001 32.1002V42.5502C8.10382 42.3174 7.00691 41.6677 6.21833 40.713C5.42974 39.7583 4.99889 38.5584 5.00001 37.3202V37.3202ZM13.46 30.7402C13.7978 30.7375 14.1229 30.8684 14.3646 31.1044C14.6062 31.3405 14.7447 31.6624 14.75 32.0002V42.6302C14.75 42.7991 14.7166 42.9664 14.6516 43.1223C14.5867 43.2783 14.4915 43.4198 14.3716 43.5388C14.2517 43.6578 14.1094 43.7519 13.9529 43.8156C13.7965 43.8793 13.6289 43.9115 13.46 43.9102H11.32V30.7402H13.46ZM52.68 43.9102H50.54C50.2005 43.9102 49.875 43.7753 49.6349 43.5353C49.3949 43.2952 49.26 42.9696 49.26 42.6302V32.0002C49.26 31.6607 49.3949 31.3351 49.6349 31.0951C49.875 30.855 50.2005 30.7202 50.54 30.7202H52.68V43.9102ZM54.68 42.5502V32.1002C55.8952 32.3329 56.9913 32.982 57.7796 33.9356C58.5679 34.8893 58.9991 36.0879 58.9991 37.3252C58.9991 38.5624 58.5679 39.761 57.7796 40.7147C56.9913 41.6683 55.8952 42.3174 54.68 42.5502Z" fill="url(#paint0_linear_200_7575)"/>
<path d="M32 20C29.6266 20 27.3066 20.7038 25.3332 22.0224C23.3598 23.3409 21.8217 25.2151 20.9135 27.4078C20.0052 29.6005 19.7676 32.0133 20.2306 34.3411C20.6936 36.6689 21.8365 38.8071 23.5147 40.4853C25.193 42.1635 27.3311 43.3064 29.6589 43.7694C31.9867 44.2324 34.3995 43.9948 36.5922 43.0866C38.7849 42.1783 40.6591 40.6402 41.9776 38.6668C43.2962 36.6935 44 34.3734 44 32C44 28.8174 42.7357 25.7652 40.4853 23.5147C38.2349 21.2643 35.1826 20 32 20ZM32 42C30.0222 42 28.0888 41.4135 26.4443 40.3147C24.7998 39.2159 23.5181 37.6541 22.7612 35.8268C22.0043 33.9996 21.8063 31.9889 22.1922 30.0491C22.578 28.1093 23.5304 26.3275 24.9289 24.9289C26.3275 23.5304 28.1093 22.578 30.0491 22.1921C31.9889 21.8063 33.9996 22.0043 35.8268 22.7612C37.6541 23.5181 39.2159 24.7998 40.3147 26.4443C41.4135 28.0888 42 30.0222 42 32C42 34.6522 40.9464 37.1957 39.0711 39.0711C37.1957 40.9464 34.6522 42 32 42Z" fill="url(#paint1_linear_200_7575)"/>
<path d="M37.0002 27.1504C36.8886 27.0806 36.7644 27.0334 36.6346 27.0117C36.5048 26.99 36.372 26.9942 36.2437 27.0239C36.1155 27.0536 35.9945 27.1084 35.8875 27.185C35.7805 27.2616 35.6896 27.3586 35.6202 27.4704L31.3202 34.4004L28.2102 31.2904C28.0219 31.1021 27.7665 30.9963 27.5002 30.9963C27.2339 30.9963 26.9785 31.1021 26.7902 31.2904C26.6019 31.4787 26.4961 31.7341 26.4961 32.0004C26.4961 32.2667 26.6019 32.5221 26.7902 32.7104L30.7902 36.7104C30.8836 36.8031 30.9944 36.8764 31.1163 36.9262C31.2381 36.9759 31.3686 37.0011 31.5002 37.0004H31.6102C31.7602 36.9845 31.9048 36.9349 32.0329 36.8552C32.1611 36.7756 32.2695 36.6679 32.3502 36.5404L37.3502 28.5404C37.4203 28.4266 37.4669 28.3 37.4872 28.1679C37.5076 28.0359 37.5013 27.9011 37.4686 27.7715C37.436 27.6419 37.3777 27.5202 37.2973 27.4135C37.2168 27.3068 37.1158 27.2174 37.0002 27.1504Z" fill="url(#paint2_linear_200_7575)"/>
<defs>
<linearGradient id="paint0_linear_200_7575" x1="3.00001" y1="32.0002" x2="61" y2="32.0002" gradientUnits="userSpaceOnUse">
<stop stop-color="#FD2411"/>
<stop offset="0.31" stop-color="#DE170C"/>
<stop offset="0.76" stop-color="#B70606"/>
<stop offset="1" stop-color="#A80004"/>
</linearGradient>
<linearGradient id="paint1_linear_200_7575" x1="500" y1="20" x2="1076" y2="20" gradientUnits="userSpaceOnUse">
<stop stop-color="#FD2411"/>
<stop offset="0.31" stop-color="#DE170C"/>
<stop offset="0.76" stop-color="#B70606"/>
<stop offset="1" stop-color="#A80004"/>
</linearGradient>
<linearGradient id="paint2_linear_200_7575" x1="318.071" y1="26.998" x2="439.102" y2="26.998" gradientUnits="userSpaceOnUse">
<stop stop-color="#FD2411"/>
<stop offset="0.31" stop-color="#DE170C"/>
<stop offset="0.76" stop-color="#B70606"/>
<stop offset="1" stop-color="#A80004"/>
</linearGradient>
</defs>
</svg>
