
        <svg xmlns="http://www.w3.org/2000/svg" xmlns:xlink="http://www.w3.org/1999/xlink" version="1.1" width="3181.8181818181824" 
        height="1300" viewBox="0 0 3181.8181818181824 1300">
			
			<g transform="scale(9.090909090909092) translate(10, 10)">
				<defs id="SvgjsDefs1372"></defs><g id="SvgjsG1373" featureKey="symbolContainer" transform="matrix(1,0,0,1,0,0)" fill="#f08a5d"><rect width="110" height="123" rx="8"></rect></g><g id="SvgjsG1374" featureKey="monogramFeature-0" transform="matrix(2.1336974827828223,0,0,2.1336974827828223,20.100077987901813,-19.72625943415752)" fill="#ffffff"><path d="M0.66 16.560000000000002 c0.06 0 30.72 -0.42 30.9 -0.24 c0.78 0.72 1.2 8.4 1.2 17.1 c-2.52 -2.7 -7.02 -6.24 -13.68 -7.2 c-2.04 -0.48 -3.66 -0.3 -3.66 -0.3 c-1.14 0.12 -1.98 1.02 -1.86 2.16 c0.06 0.96 0.84 1.68 1.74 1.86 c0.18 0 0.42 0.06 0.66 0.06 c0.66 0 1.2 0.06 1.8 0.18 c2.34 0.6 5.76 3.06 4.2 12 c-4.32 -1.26 -7.62 -0.42 -8.34 0.66 c-1.44 2.04 -0.24 9.48 1.02 17.22 c-7.08 0 -13.74 -0.3 -14.16 -0.96 c-1.2 -2.16 0 -42.36 0.18 -42.54 z"></path></g><g id="SvgjsG1375" featureKey="nameFeature-0" transform="matrix(1.107174400916879,0,0,1.107174400916879,127.34278080426921,33.023916781490506)" fill="#f08a5d"><path d="M20.12 17.32 l-11.72 0 l0 6.12 l9.64 0 l0 5 l-9.64 0 l0 11.56 l-6 0 l0 -28 l17.72 0 l0 5.32 z M29.32 11.719999999999999 l0 4.88 l-5.72 0 l0 -4.88 l5.72 0 z M29.32 19.2 l0 20.8 l-5.72 0 l0 -20.8 l5.72 0 z M45.839999999999996 18.88 c3.96 0 7.88 2.6 7.88 9.16 l0 11.96 l-5.72 0 l0 -11.56 c0 -3.4 -1.32 -4.56 -3.52 -4.56 c-3.04 0 -4.84 2.88 -5.28 4.32 l0 11.8 l-5.72 0 l0 -20.8 l5.72 0 l0 3.84 c0.4 -1.08 2.64 -4.16 6.64 -4.16 z M67.84 18.84 c4.72 0 11.24 3.56 10 12.76 l-15.12 0 c0.72 2.6 2.88 3.96 5.68 3.96 c2.6 0 3.6 -0.6 5.08 -1.4 l3.16 3.08 c-1.8 1.88 -4.36 3.16 -8.44 3.16 c-5.2 0 -11.28 -3.56 -11.28 -10.72 c0 -7.28 6.2 -10.84 10.92 -10.84 z M67.84 23.72 c-2.08 0 -4.28 1.28 -5.04 3.84 l10 0 c-0.64 -2.56 -2.92 -3.84 -4.96 -3.84 z M112.79999999999998 12 l0 5.36 l-6.96 0 l0 22.64 l-5.84 0 l0 -22.64 l-7 0 l0 -5.36 l19.8 0 z M126.72 18.84 c4.72 0 11.24 3.56 10 12.76 l-15.12 0 c0.72 2.6 2.88 3.96 5.68 3.96 c2.6 0 3.6 -0.6 5.08 -1.4 l3.16 3.08 c-1.8 1.88 -4.36 3.16 -8.44 3.16 c-5.2 0 -11.28 -3.56 -11.28 -10.72 c0 -7.28 6.2 -10.84 10.92 -10.84 z M126.72 23.72 c-2.08 0 -4.28 1.28 -5.04 3.84 l10 0 c-0.64 -2.56 -2.92 -3.84 -4.96 -3.84 z M150.52 18.84 c3.8 0 7 1.64 8.96 5 l-4.4 2.04 c-1.12 -1.12 -2.2 -1.96 -4.48 -1.96 c-2.6 0 -5.36 1.96 -5.36 5.72 c0 3.72 2.76 5.64 5.36 5.64 c2.28 0 3.36 -0.8 4.48 -1.92 l4.44 2.04 c-2 3.36 -5.12 4.92 -9 4.92 c-4.64 0 -10.84 -3.36 -10.84 -10.68 c0 -7.24 6.2 -10.8 10.84 -10.8 z M175.16 18.88 c3.96 0 7.88 2.6 7.88 9.16 l0 11.96 l-5.72 0 l0 -11.56 c0 -3.4 -1.32 -4.56 -3.52 -4.56 c-3.04 0 -4.84 2.88 -5.28 4.32 l0 11.8 l-5.72 0 l0 -28.28 l5.72 0 l0 11.32 c0.4 -1.08 2.64 -4.16 6.64 -4.16 z"></path></g>
			</g>
		</svg>
	