<svg id="Software_Subscription_Card" data-name="Software Subscription Card" xmlns="http://www.w3.org/2000/svg" xmlns:xlink="http://www.w3.org/1999/xlink" width="595" height="140" viewBox="0 0 595 140">
  <defs>
    <linearGradient id="linear-gradient" x1="0.367" y1="0.22" x2="0.685" y2="0.844" gradientUnits="objectBoundingBox">
      <stop offset="0" stop-color="#075943"/>
      <stop offset="0.331" stop-color="#b1cbc4" stop-opacity="0.549"/>
      <stop offset="0.616" stop-color="#6f9e92" stop-opacity="0.729"/>
      <stop offset="1" stop-color="#075943"/>
    </linearGradient>
    <filter id="Rectangle_3" x="428" y="36" width="167" height="104" filterUnits="userSpaceOnUse">
      <feOffset dy="3" input="SourceAlpha"/>
      <feGaussianBlur stdDeviation="3" result="blur"/>
      <feFlood flood-opacity="0.161"/>
      <feComposite operator="in" in2="blur"/>
      <feComposite in="SourceGraphic"/>
    </filter>
    <linearGradient id="linear-gradient-2" x1="0.748" y1="0.5" x2="0.22" y2="0.5" gradientUnits="objectBoundingBox">
      <stop offset="0" stop-color="#7bb0a2"/>
      <stop offset="1" stop-color="#024a33"/>
    </linearGradient>
    <filter id="Rectangle_5" x="152" y="71" width="37" height="36" filterUnits="userSpaceOnUse">
      <feOffset dy="3" input="SourceAlpha"/>
      <feGaussianBlur stdDeviation="3" result="blur-2"/>
      <feFlood flood-opacity="0.161"/>
      <feComposite operator="in" in2="blur-2"/>
      <feComposite in="SourceGraphic"/>
    </filter>
  </defs>
  <rect id="Background" width="586" height="128" fill="#03351c"/>
  <g id="Content" transform="translate(-374 -110)">
    <text id="Software_Subscription_Card-2" data-name="Software Subscription Card" transform="translate(428 131)" fill="#fff" font-size="20" font-family="SegoeUI-Semibold, Segoe UI" font-weight="600"><tspan x="0" y="22">Software Subscription Card</tspan></text>
    <text id="Active" transform="translate(444 160)" fill="#fff" font-size="14" font-family="SegoeUI-Semibold, Segoe UI" font-weight="600"><tspan x="0" y="15">ACTIVE</tspan></text>
    <text id="Issued_Access" data-name="Issued Access" transform="translate(429 185)" fill="#fff" font-size="14" font-family="SegoeUI, Segoe UI" letter-spacing="0.008em"><tspan x="0" y="15">Issued Access</tspan></text>
    <circle id="Ellipse_2" data-name="Ellipse 2" cx="3" cy="3" r="3" transform="translate(429 168)" fill="#fff"/>
    <g transform="matrix(1, 0, 0, 1, 374, 110)" filter="url(#Rectangle_3)">
      <path id="Rectangle_3-2" data-name="Rectangle 3" d="M15,0H149a0,0,0,0,1,0,0V86a0,0,0,0,1,0,0H0a0,0,0,0,1,0,0V15A15,15,0,0,1,15,0Z" transform="translate(437 42)" fill="url(#linear-gradient)"/>
    </g>
    <rect id="Rectangle_4" data-name="Rectangle 4" width="149" height="25" transform="translate(811 173)" fill="url(#linear-gradient-2)"/>
    <g id="Group_16" data-name="Group 16">
      <g transform="matrix(1, 0, 0, 1, 374, 110)" filter="url(#Rectangle_5)">
        <rect id="Rectangle_5-2" data-name="Rectangle 5" width="19" height="18" rx="2" transform="translate(161 77)" fill="#747474"/>
      </g>
      <text id="_4" data-name="4" transform="translate(543 188)" fill="#fff" font-size="12" font-family="SegoeUI-Bold, Segoe UI" font-weight="700" letter-spacing="0.008em"><tspan x="-3.451" y="13">4</tspan></text>
    </g>
    <text id="_4862" data-name="4862" transform="translate(832 224)" fill="#fff" font-size="16" font-family="SegoeUI, Segoe UI"><tspan x="0" y="0">4862</tspan></text>
  </g>
</svg>
